<!--?xml version="1.0" encoding="utf-8"?-->
<!-- Generator: Adobe Illustrator 18.0.0, SVG Export Plug-In . SVG Version: 6.00 Build 0)  -->

<svg version="1.1" id="_x31_0" xmlns="http://www.w3.org/2000/svg" xmlns:xlink="http://www.w3.org/1999/xlink" x="0px" y="0px" viewBox="0 0 512 512" style="width: 256px; height: 256px; opacity: 1;" xml:space="preserve">
<style type="text/css">
	.st0{fill:#374149;}
</style>
<g>
	<path class="st0" d="M256,328c39.68,0,72-32.32,72-72s-32.32-72-72-72s-72,32.32-72,72S216.32,328,256,328z M256,216
		c22.078,0,40,17.922,40,40s-17.922,40-40,40c-22.082,0-40-17.922-40-40S233.918,216,256,216z"></path>
	<path class="st0" d="M256,0C114.641,0,0,114.641,0,256s114.641,256,256,256s256-114.641,256-256S397.359,0,256,0z M395.984,78.152
		L314.149,160c-11.211-7.918-23.962-13.203-37.477-15.535V28.703c42.625,3.222,82.613,19.414,115.578,46.465
		C393.481,76.183,394.774,77.106,395.984,78.152z M256,168c48.558,0,88,39.442,88,88s-39.442,88-88,88c-48.562,0-88-39.442-88-88
		S207.438,168,256,168z"></path>
</g>
</svg>
