xml version="1.0" encoding="utf-8"?-->
<!-- Generator: Adobe Illustrator 18.1.1, SVG Export Plug-In . SVG Version: 6.00 Build 0)  -->

<svg version="1.1" id="_x31_0" xmlns="http://www.w3.org/2000/svg" xmlns:xlink="http://www.w3.org/1999/xlink" x="0px" y="0px" viewBox="0 0 512 512" style="width: 256px; height: 256px; opacity: 1;" xml:space="preserve">
<style type="text/css">
	.st0{fill:#374149;}
</style>
<g>
	<path class="st0" d="M499.18,32.045H19.691c-7.05,0-12.816,5.77-12.816,12.817v117.812c0,7.051,5.766,12.817,12.816,12.817h216.551
		v27.21H12.82c-7.05,0-12.82,5.77-12.82,12.821V333.33c0,7.051,5.77,12.821,12.82,12.821h223.422v68.484
		c-3.922,2.614-7.293,5.989-9.914,9.91H79.313v39.516h147.015c6.394,9.582,17.293,15.894,29.672,15.894
		c12.379,0,23.282-6.313,29.672-15.894h147.015v-39.516H285.672c-2.618-3.922-5.992-7.297-9.91-9.91V346.15h216.547
		c7.05,0,12.82-5.77,12.82-12.821V215.522c0-7.051-5.77-12.821-12.82-12.821H275.762v-27.21H499.18c7.05,0,12.82-5.766,12.82-12.817
		V44.862C512,37.814,506.23,32.045,499.18,32.045z M375.39,103.767c0-9.812,7.954-17.77,17.77-17.77
		c9.817,0,17.77,7.958,17.77,17.77c0,9.817-7.953,17.77-17.77,17.77C383.344,121.537,375.39,113.584,375.39,103.767z
		 M444.707,121.537c-9.817,0-17.77-7.953-17.77-17.77c0-9.812,7.953-17.77,17.77-17.77c9.812,0,17.77,7.958,17.77,17.77
		C462.477,113.584,454.519,121.537,444.707,121.537z M375.39,274.428c0-9.817,7.954-17.774,17.77-17.774
		c9.817,0,17.77,7.957,17.77,17.774c0,9.812-7.953,17.766-17.77,17.766C383.344,292.194,375.39,284.24,375.39,274.428z
		 M444.707,292.194c-9.817,0-17.77-7.954-17.77-17.766c0-9.817,7.953-17.774,17.77-17.774c9.812,0,17.77,7.957,17.77,17.774
		C462.477,284.24,454.519,292.194,444.707,292.194z M43.23,313.326l23.207-77.848H93l7.481,0.047l-23.207,77.847H50.766
		L43.23,313.326z M100.508,313.326l23.207-77.848h26.562l7.48,0.047l-23.21,77.847h-26.508L100.508,313.326z M157.782,313.326
		l23.206-77.848h26.562l7.481,0.047l-23.207,77.847h-26.507L157.782,313.326z M215.031,64.865l-23.207,77.852h-26.59l-7.453-0.047
		l23.206-77.847h26.645L215.031,64.865z M157.758,64.865l-23.21,77.852h-26.586l-7.453-0.047l23.207-77.847h26.644L157.758,64.865z
		 M100.481,64.865l-23.207,77.852h-26.59l-7.453-0.047l23.207-77.847h26.645L100.481,64.865z"></path>
</g>
</svg>
