<!--?xml version="1.0" encoding="utf-8"?-->
<!-- Generator: Adobe Illustrator 18.0.0, SVG Export Plug-In . SVG Version: 6.00 Build 0)  -->

<svg version="1.1" id="_x31_0" xmlns="http://www.w3.org/2000/svg" xmlns:xlink="http://www.w3.org/1999/xlink" x="0px" y="0px" viewBox="0 0 512 512" style="width: 256px; height: 256px; opacity: 1;" xml:space="preserve">
<style type="text/css">
	.st0{fill:#374149;}
</style>
<g>
	<path class="st0" d="M380.344,0H0v512h512V131.656L380.344,0z M112.981,141.606V35.156c0-8.629,6.972-15.652,15.605-15.652h194.657
		c8.633,0,15.652,7.023,15.652,15.652v106.45c0,8.629-7.019,15.652-15.652,15.652H128.586
		C119.953,157.258,112.981,150.234,112.981,141.606z M443.734,246.246v190.171c0,14.825-11.996,26.821-26.82,26.821H95.086
		c-14.824,0-26.82-11.996-26.82-26.821V246.246c0-14.825,11.996-26.817,26.82-26.817h321.829
		C431.738,219.43,443.734,231.422,443.734,246.246z"></path>
	<polygon class="st0" points="309.637,34.23 237.019,34.23 236.574,34.23 236.574,34.23 236.492,34.23 236.492,142.531 
		309.637,142.531 	"></polygon>
	<polygon class="st0" points="173.106,287.695 173.106,336.078 173.102,336.375 173.106,336.375 173.106,336.457 338.894,336.457 
		338.894,287.695 	"></polygon>
	<polygon class="st0" points="173.183,365.715 173.183,365.715 173.106,365.715 173.106,414.102 173.102,414.398 173.106,414.398 
		173.106,414.477 338.894,414.477 338.894,365.715 174.195,365.715 	"></polygon>
</g>
</svg>
