<!--?xml version="1.0" encoding="utf-8"?-->
<!-- Generator: Adobe Illustrator 19.1.1, SVG Export Plug-In . SVG Version: 6.00 Build 0)  -->
<svg version="1.1" id="_x31_0" xmlns="http://www.w3.org/2000/svg" xmlns:xlink="http://www.w3.org/1999/xlink" x="0px" y="0px" viewBox="0 0 512 512" style="width: 256px; height: 256px; opacity: 1;" xml:space="preserve">
<style type="text/css">
	.st0{fill:#374149;}
</style>
<g>
	<path class="st0" d="M421.797,398.434c-0.094-0.402-0.16-0.805-0.215-1.215c-0.082-0.602-0.164-1.199-0.164-1.82
		c0-0.621,0.082-1.222,0.164-1.824c0.055-0.406,0.122-0.809,0.215-1.207c0.266-1.16,0.676-2.258,1.218-3.285
		c0.195-0.375,0.406-0.734,0.637-1.09c0.317-0.488,0.637-0.976,1.012-1.418c0.23-0.293,0.496-0.574,0.766-0.844
		c2.473-2.473,5.894-4.012,9.664-4.012h2.942h13.172h0.038l0,0h0.161V37.465C451.406,16.805,434.602,0,413.942,0H217.641v13.371
		v8.461h-73.133v-8.461V0h-46.45c-20.66,0-37.465,16.805-37.465,37.465v343.047v1.05l0,0v0.156h13.371h2.942
		c4.183,0,7.941,1.887,10.43,4.856c0.371,0.438,0.687,0.922,1.004,1.406c0.234,0.359,0.449,0.73,0.648,1.109
		c0.539,1.024,0.95,2.118,1.215,3.274c0.094,0.402,0.16,0.805,0.214,1.215c0.082,0.598,0.164,1.199,0.164,1.82
		c0,0.621-0.082,1.222-0.164,1.824c-0.054,0.406-0.121,0.809-0.214,1.207c-0.266,1.16-0.676,2.258-1.219,3.286
		c-0.195,0.374-0.406,0.734-0.637,1.09c-0.316,0.484-0.637,0.977-1.011,1.418c-0.23,0.294-0.496,0.574-0.766,0.844
		c-2.473,2.473-5.894,4.012-9.664,4.012h-2.942H60.594v65.472c0,20.645,16.805,37.45,37.465,37.45h315.883
		c20.66,0,37.465-16.805,37.465-37.45v-65.472h-13.371h-2.942c-4.183,0-7.942-1.887-10.43-4.856
		c-0.371-0.438-0.687-0.922-1.004-1.406c-0.234-0.364-0.45-0.731-0.652-1.114C422.473,400.68,422.062,399.586,421.797,398.434z
		 M104.262,48.215c0-5.485,4.453-9.934,9.934-9.934c5.481,0,9.934,4.449,9.934,9.934c0,5.48-4.453,9.918-9.934,9.918
		C108.714,58.133,104.262,53.695,104.262,48.215z M224.378,405.867c-1.55-2.809-2.527-5.805-2.98-8.879v-0.011
		c-0.387-2.555-0.387-5.149-0.054-7.688c0.695-5.281,2.863-10.39,6.351-14.656l0.32-0.398l3.25-3.961l8.61-10.535l3.37-4.118
		l12.633-15.457l39.95-48.84c1.406-2.539,4.027-3.984,6.742-3.984c1.242,0,2.511,0.309,3.675,0.949
		c3.715,2.047,5.066,6.711,3.035,10.414l-11.258,34.043l-6.218,18.785l-1.645,4.985l-4.238,12.824l-1.602,4.84l-4.602,13.918
		l-1.054,3.184l-3.184,9.613c-0.828,2.527-2.003,4.89-3.437,7.058c-4.731,7.098-12.418,11.926-21.153,12.489
		c-0.344,0.027-0.707,0.039-1.054,0.039c-0.254,0.011-0.492,0.011-0.75,0.011c-4.598,0-9.25-1.121-13.57-3.488
		C230.648,414.332,226.867,410.414,224.378,405.867z M290.762,435.414c2.582-2.539,4.922-5.282,7.008-8.234l0.027-0.039
		l20.32-20.324h55.754v58.038l-1.977,1.981l-9.066,9.062h-72.066V435.414z M340.805,305.77c4.906-17.39-2.606-36.523-19.102-45.598
		c-5.844-3.211-12.477-4.922-19.133-4.922h-0.016c-13.129,0.015-25.324,6.484-32.703,17.156l-50.766,62.062
		c-49.578-15.684-85.598-62.129-85.598-116.828c0-67.547,54.954-122.512,122.512-122.512s122.511,54.965,122.511,122.512
		c0,29.098-10.285,55.781-27.297,76.824C347.984,298.394,344.57,302.207,340.805,305.77z M315.457,382.226l6.566-19.851l1.954-5.883
		c16.242-7.988,30.87-18.758,43.304-31.66c1.258-1.305,2.438-2.676,3.649-4.019c1.086-1.207,2.207-2.383,3.258-3.63
		c1.641-1.941,3.188-3.957,4.726-5.972c0.582-0.762,1.196-1.493,1.762-2.262c1.527-2.078,2.957-4.227,4.374-6.379
		c0.543-0.82,1.122-1.618,1.649-2.45c1.152-1.82,2.207-3.699,3.281-5.57c0.738-1.277,1.512-2.531,2.211-3.835
		c0.653-1.215,1.23-2.469,1.852-3.699c1.038-2.063,2.086-4.118,3.034-6.231c0.126-0.277,0.227-0.566,0.352-0.843
		c8.434-19.074,13.172-40.137,13.172-62.301c0-85.25-69.352-154.602-154.602-154.602c-85.25,0-154.602,69.351-154.602,154.602
		c0,40.606,15.738,77.602,41.438,105.222c12.328,13.266,26.965,24.375,43.266,32.664c3.511,1.793,7.137,3.41,10.805,4.922
		c0.402,0.183,0.789,0.378,1.191,0.562c-0.801,1.281-1.531,2.582-2.211,3.914c-0.855,1.622-1.617,3.266-2.301,4.95
		c-1.347,3.262-2.406,6.644-3.168,10.109c-0.453,2.055-0.789,4.141-1.027,6.254c-1.379,12.25,0.988,24.375,6.859,35.058
		c5.508,10.054,13.742,18.289,23.813,23.824c8.89,4.883,18.918,7.462,29.023,7.462c0.258,0,0.496,0,0.75-0.012v7.953l-0.016,0.856
		c-59.785-7.149-108.043-52.242-119.98-110.422v-0.015c1.855-2.258,3.367-4.786,4.465-7.539c1.324-3.289,2.046-6.875,2.046-10.618
		c0-3.488-0.629-6.832-1.766-9.922c-4.05-10.91-14.574-18.718-26.875-18.718c-1.269,0-2.527,0.082-3.758,0.254
		c-7.086-12.367-12.703-25.683-16.617-39.695c-4.188-14.973-6.418-30.766-6.418-47.062s2.23-32.074,6.418-47.051
		C107.938,96.828,175.75,42.558,256,42.558c80.25,0,148.062,54.27,168.664,128.031c4.187,14.977,6.418,30.754,6.418,47.051
		s-2.23,32.09-6.418,47.062c-3.914,14.012-9.531,27.328-16.618,39.695c-1.23-0.172-2.472-0.254-3.742-0.254
		c-15.805,0-28.657,12.851-28.657,28.64c0,3.742,0.723,7.329,2.047,10.618c-15.008,14.543-32.621,26.39-52.047,34.84
		C322.301,379.664,318.918,381.012,315.457,382.226z M114.195,451.446c5.481,0,9.934,4.453,9.934,9.934
		c0,5.484-4.453,9.934-9.934,9.934c-5.481,0-9.934-4.45-9.934-9.934C104.262,455.898,108.714,451.446,114.195,451.446z
		 M107.71,322.863c5.481,0,9.922,4.442,9.922,9.922c0,5.497-4.442,9.934-9.922,9.934c-5.496,0-9.934-4.437-9.934-9.934
		C97.777,327.305,102.214,322.863,107.71,322.863z M404.305,322.863c5.48,0,9.918,4.442,9.918,9.922
		c0,5.497-4.438,9.934-9.918,9.934c-5.496,0-9.938-4.437-9.938-9.934C394.367,327.305,398.809,322.863,404.305,322.863z
		 M400.851,461.379c0-5.481,4.454-9.934,9.938-9.934c5.481,0,9.934,4.453,9.934,9.934c0,5.484-4.453,9.934-9.934,9.934
		C405.305,471.313,400.851,466.863,400.851,461.379z M400.851,48.215c0-5.485,4.454-9.934,9.938-9.934
		c5.481,0,9.934,4.449,9.934,9.934c0,5.48-4.453,9.918-9.934,9.918C405.305,58.133,400.851,53.695,400.851,48.215z"></path>
	<path class="st0" d="M256,208.91c-4.828,0-8.73,3.918-8.73,8.73c0,4.828,3.902,8.742,8.73,8.742c4.828,0,8.73-3.914,8.73-8.742
		C264.73,212.828,260.828,208.91,256,208.91z"></path>
	<path class="st0" d="M256,167.262c-27.782,0-50.39,22.598-50.39,50.379c0,27.785,22.609,50.39,50.39,50.39
		c27.785,0,50.39-22.606,50.39-50.39C306.39,189.859,283.785,167.262,256,167.262z M256,243.969
		c-14.508,0-26.324-11.809-26.324-26.328c0-14.508,11.816-26.313,26.324-26.313c14.519,0,26.328,11.805,26.328,26.313
		C282.328,232.16,270.519,243.969,256,243.969z"></path>
	<path class="st0" d="M258.246,392.722c0.012-0.199,0.028-0.398,0.028-0.602c0-4.664-3.786-8.434-8.438-8.434
		c-4.664,0-8.438,3.77-8.438,8.434v0.016c0.015,4.652,3.774,8.422,8.438,8.422C254.289,400.558,257.938,397.098,258.246,392.722z"></path>
</g>
</svg>
