<!--?xml version="1.0" encoding="utf-8"?-->
<!-- Generator: Adobe Illustrator 19.1.1, SVG Export Plug-In . SVG Version: 6.00 Build 0)  -->
<svg version="1.1" id="_x31_0" xmlns="http://www.w3.org/2000/svg" xmlns:xlink="http://www.w3.org/1999/xlink" x="0px" y="0px" viewBox="0 0 512 512" style="width: 256px; height: 256px; opacity: 1;" xml:space="preserve">
<style type="text/css">
	.st0{fill:#374149;}
</style>
<g>
	<path class="st0" d="M512,113.802V81.947c0-4.446-3.602-8.062-8.066-8.062H8.047C3.602,73.885,0,77.502,0,81.947v31.938
		c3.152,0.332,5.992,1.754,8.125,3.886c2.454,2.454,3.969,5.832,3.969,9.578c0,6.996-5.305,12.75-12.094,13.465v47.043
		c3.152,0.336,5.992,1.754,8.125,3.886c2.454,2.458,3.969,5.836,3.969,9.578c0,6.98-5.305,12.75-12.094,13.465v42.39
		c0,4.446,3.602,8.062,8.047,8.062h2.898v22.473H299.55h0.883l0,0h0.16V265.24v-22.469v-4.316c0-4.766,3.859-8.621,8.622-8.621
		c2.374,0,4.527,0.953,6.09,2.515c1.543,1.562,2.515,3.73,2.515,6.106v4.316v22.469v22.246v0.066l0,0v0.16h176.711V265.24h9.402
		c4.465,0,8.066-3.617,8.066-8.062v-42.309c-7.477,0-13.547-6.07-13.547-13.546c0-3.742,1.516-7.121,3.969-9.578
		c2.454-2.453,5.848-3.965,9.578-3.965v-46.882c-7.477,0-13.547-6.059-13.547-13.547c0-3.746,1.516-7.125,3.969-9.578
		C504.875,115.318,508.27,113.802,512,113.802z M449.914,257.115v8.125v8.129h-23.11v-8.129v-8.125H449.914z M417.242,257.115v8.125
		v8.129h-23.106v-8.129v-8.125H417.242z M480.191,257.115v8.125v8.129h-20.718v-8.129v-8.125H480.191z M474.805,119.986v96.691
		v0.137h-60.238v-96.828h60.215H474.805z M384.574,257.115v8.125v8.129h-23.09v-8.129v-8.125H384.574z M351.922,257.115v8.125v8.129
		h-23.105v-8.129v-8.125H351.922z M393.054,119.986v96.828h-60.238v-96.828h60.214H393.054z M255.226,257.115v8.125v8.129h-25.004
		v-8.129v-8.125H255.226z M220.66,257.115v8.125v8.129h-24.988v-8.129v-8.125H220.66z M289.375,257.115v8.125v8.129h-24.59v-8.129
		v-8.125H289.375z M276.578,119.986v96.828h-60.219v-96.828h60.195H276.578z M188.965,216.814h-60.238v-96.828h60.211h0.027v96.691
		V216.814z M186.114,257.115v8.125v8.129H161.11v-8.129v-8.125H186.114z M151.547,257.115v8.125v8.129h-24.989v-8.129v-8.125
		H151.547z M82.45,257.115v8.125v8.129H57.446v-8.129v-8.125H82.45z M47.886,257.115v8.125v8.129H25.289v-8.129v-8.125H47.886z
		 M117,257.115v8.125v8.129H92.012v-8.129v-8.125H117z M101.351,119.986v96.828H41.114v-96.828h60.21H101.351z"></path>
	<polygon class="st0" points="94.027,168.401 94.027,128.045 48.438,128.045 48.438,208.756 71.23,208.756 	"></polygon>
	<polygon class="st0" points="136.05,128.045 136.05,208.756 158.848,208.756 181.641,168.401 181.641,128.045 	"></polygon>
	<polygon class="st0" points="269.254,168.401 269.254,128.326 269.258,128.205 269.254,128.205 269.254,128.045 223.68,128.045 
		223.68,208.756 246.477,208.756 	"></polygon>
	<polygon class="st0" points="385.73,168.401 385.73,128.045 340.141,128.045 340.141,208.756 362.934,208.756 	"></polygon>
	<polygon class="st0" points="421.89,208.6 421.89,208.756 444.687,208.756 467.481,168.401 467.481,128.045 421.89,128.045 
		421.89,208.354 421.89,208.6 	"></polygon>
	<polygon class="st0" points="122.859,374.283 116.027,388.275 98.222,351.428 85.074,351.428 85.074,419.779 98.218,419.779 
		98.258,419.779 98.258,419.779 98.418,419.779 98.418,398.666 98.558,380.217 111.566,405.858 120.59,405.858 127.492,392.166 
		133.652,380.252 133.652,419.779 146.996,419.779 146.996,351.428 133.84,351.428 	"></polygon>
	<path class="st0" d="M197.386,375.955c-1.851-2.145-4.14-3.809-6.859-4.992c-2.726-1.184-5.812-1.778-9.266-1.778
		c-3.266,0-6.226,0.562-8.882,1.683c-2.657,1.118-4.946,2.766-6.86,4.942c-1.922,2.176-3.414,4.848-4.469,8.016
		c-1.054,3.168-1.578,6.801-1.578,10.898c0,5.054,0.648,9.23,1.961,12.527c1.313,3.297,3.039,5.918,5.187,7.871
		c2.141,1.953,4.61,3.312,7.391,4.082c2.789,0.766,5.648,1.149,8.594,1.149c2.242,0,4.258-0.16,6.046-0.477
		c1.79-0.32,3.438-0.816,4.946-1.488c1.5-0.672,2.89-1.504,4.172-2.496c1.152-0.891,2.301-1.938,3.449-3.058
		c0.098-0.078,0.192-0.157,0.286-0.234l-0.012-0.008c0.043-0.039,0.082-0.066,0.122-0.11l-7.586-7.39
		c-1.602,1.535-3.203,2.703-4.797,3.504c-1.602,0.801-3.781,1.199-6.531,1.199c-3.586,0-6.305-1.039-8.156-3.122
		c-1.738-1.941-2.582-4.453-2.699-7.434c0-0.206-0.078-0.367-0.07-0.582h31.023l0.094,0.004v-0.004h0.16v-5.278
		c0-3.519-0.476-6.77-1.437-9.746C200.652,380.658,199.246,378.1,197.386,375.955z M171.758,390.107
		c0.062-1.082,0.16-2.023,0.286-2.824c0.133-0.801,0.414-1.648,0.867-2.543c0.703-1.472,1.742-2.703,3.117-3.695
		s3.125-1.488,5.234-1.488c2.11,0,3.852,0.496,5.234,1.488c1.375,0.992,2.414,2.223,3.118,3.695
		c0.445,0.895,0.734,1.742,0.867,2.543c0.125,0.801,0.218,1.746,0.281,2.832h-18.121L171.758,390.107z"></path>
	<path class="st0" d="M279.762,373.603c-1.414-1.406-3.187-2.496-5.328-3.266c-2.149-0.766-4.469-1.152-6.961-1.152
		c-3.141,0-5.89,0.5-8.258,1.488c-2.301,0.973-4.481,2.547-6.543,4.692c-0.058,0.058-0.118,0.094-0.18,0.152
		c-1.602-2.168-3.504-3.77-5.707-4.793c-2.21-1.023-4.726-1.539-7.538-1.539c-2.305,0-4.547,0.45-6.719,1.348
		c-1.726,0.71-3.242,1.73-4.644,2.926c-0.367,0.27-0.742,0.508-1.114,0.801v-4.496h-12.195v50.015h12.281h0.035l0,0h0.16v-30.238
		c0-1.73,0.258-3.168,0.774-4.32c0.508-1.153,1.164-2.082,1.969-2.786c0.797-0.702,1.695-1.214,2.688-1.534
		c0.992-0.321,1.969-0.481,2.93-0.481c0.953,0,1.93,0.16,2.922,0.481c0.992,0.32,1.89,0.832,2.687,1.534
		c0.805,0.703,1.446,1.633,1.922,2.786c0.484,1.152,0.718,2.59,0.718,4.32v30.238h12.29h0.034l0,0h0.161v-30.527
		c0-1.602,0.25-2.977,0.766-4.129c0.515-1.153,1.164-2.062,1.969-2.734c0.797-0.672,1.695-1.168,2.687-1.488
		c0.992-0.321,1.969-0.481,2.93-0.481c0.961,0,1.93,0.16,2.93,0.481c0.985,0.32,1.883,0.832,2.688,1.534
		c0.797,0.703,1.437,1.633,1.914,2.786c0.485,1.152,0.726,2.59,0.726,4.32v30.238h12.477V387.81c0-2.75-0.398-5.293-1.203-7.633
		C283.23,377.846,281.809,375.65,279.762,373.603z"></path>
	<path class="st0" d="M333.23,375.33c-1.602-1.664-3.664-3.102-6.195-4.321c-2.531-1.214-5.649-1.824-9.359-1.824
		c-3.711,0-6.813,0.61-9.313,1.824c-2.492,1.219-4.546,2.657-6.141,4.321c-2.242,2.434-3.75,5.137-4.515,8.113
		c-0.766,2.977-1.149,6.738-1.149,11.282c0,4.543,0.383,8.32,1.149,11.328s2.274,5.726,4.515,8.16
		c1.594,1.664,3.649,3.102,6.141,4.321c2.5,1.214,5.602,1.82,9.313,1.82c3.71,0,6.828-0.606,9.359-1.82
		c2.531-1.219,4.594-2.657,6.195-4.321c2.305-2.367,3.82-5.074,4.554-8.113c0.734-3.039,1.11-6.832,1.11-11.375
		c0-4.543-0.382-8.305-1.156-11.282C336.973,380.467,335.465,377.764,333.23,375.33z M325.934,401.826
		c-0.32,2.113-1.125,3.809-2.398,5.09c-1.477,1.473-3.43,2.207-5.859,2.207c-2.367,0-4.29-0.734-5.758-2.207
		c-1.281-1.281-2.086-2.977-2.398-5.09c-0.328-2.11-0.484-4.477-0.484-7.102c0-2.558,0.156-4.898,0.484-7.008
		c0.313-2.114,1.118-3.809,2.398-5.09c1.469-1.473,3.391-2.207,5.758-2.207c2.43,0,4.382,0.734,5.859,2.207
		c1.274,1.281,2.078,2.976,2.398,5.09c0.32,2.11,0.477,4.45,0.477,7.008C326.41,397.35,326.254,399.717,325.934,401.826z"></path>
	<path class="st0" d="M375.558,369.186c-2.687,0-5.148,0.531-7.39,1.586c-1.754,0.829-3.098,1.821-4.222,2.906
		c-0.317,0.254-0.664,0.496-0.958,0.762v-4.675h-12.195v50.015h12.477v-30.144c0-1.598,0.242-2.977,0.726-4.13
		c0.477-1.152,1.102-2.109,1.867-2.878c0.774-0.77,1.633-1.328,2.594-1.68c0.961-0.351,1.922-0.527,2.883-0.527
		c1.531,0,2.781,0.258,3.742,0.766c0.961,0.516,1.922,1.25,2.882,2.211l9.406-9.504c-1.726-1.73-3.523-2.946-5.375-3.649
		C380.137,369.541,377.996,369.186,375.558,369.186z"></path>
	<path class="st0" d="M421.355,369.764l-5.558,17.214l-4.492,13.496l-10.301-30.71h-9.722L388,369.709l0.019,0.055h-0.171
		l17.086,46.465l-2.11,6.144c-0.641,1.856-1.39,3.07-2.258,3.645c-0.859,0.578-2.187,0.867-3.984,0.867h-2.875v11.23h4.89
		c2.047,0,3.985-0.274,5.813-0.816c1.82-0.543,3.469-1.551,4.945-3.024c1.406-1.41,2.657-3.55,3.742-6.434l15.848-42.992
		l5.558-14.922l-0.058-0.004l0.058-0.16H421.355z"></path>
</g>
</svg>
