<!--?xml version="1.0" encoding="utf-8"?-->
<!-- Generator: Adobe Illustrator 19.1.1, SVG Export Plug-In . SVG Version: 6.00 Build 0)  -->
<svg version="1.1" id="_x31_0" xmlns="http://www.w3.org/2000/svg" xmlns:xlink="http://www.w3.org/1999/xlink" x="0px" y="0px" viewBox="0 0 512 512" style="width: 256px; height: 256px; opacity: 1;" xml:space="preserve">
<style type="text/css">
	.st0{fill:#374149;}
</style>
<g>
	<polygon class="st0" points="257.305,248.224 266.942,248.224 274.758,240.264 268.332,222.334 253.633,222.334 249.09,222.284 
		249.106,222.334 248.938,222.334 	"></polygon>
	<polygon class="st0" points="257.305,363.842 250.969,383.396 248.938,389.502 248.992,389.502 248.938,389.662 268.332,389.662 
		274.758,371.732 266.871,363.842 	"></polygon>
	<path class="st0" d="M390.66,261.068l-13.129-13.125h-89.855l-13.126,13.125v89.855l13.126,13.129h89.855l13.129-13.129V261.068z
		 M342.598,264.666l-3.324,3.664l-16.41,17.734l-10.191,10.961l-14.523,15.641l-1.371,1.453l-0.93,0.844v-46.98l3.488-3.422h25.996
		L342.598,264.666z"></path>
	<polygon class="st0" points="416.27,222.334 396.875,222.334 390.45,240.264 398.34,248.224 407.902,248.224 414.258,228.552 
		416.27,222.494 416.218,222.49 	"></polygon>
	<polygon class="st0" points="398.34,363.842 390.45,371.732 396.875,389.662 416.27,389.662 407.902,363.842 	"></polygon>
	<path class="st0" d="M240.746,176.018c-1.516,0-2.887-0.899-3.493-2.286L184.394,52.209H97.977V4.268H0v46.477v0.14l0,0v0.161
		h51.278v455.137l-0.004,1.39h0.004v0.16h46.699v-75.558h25.289h8.922v27.539c0,1.554,0.234,2.949,0.778,4.343
		c1.782,5.664,7.137,9.699,13.34,9.699h18.543v-41.66h9.699v41.66h31.957v-41.66h9.699v41.66h31.882v-41.66h9.699v41.371
		l-0.003,0.129h0.003v0.16h31.958v-41.66h9.699v41.66h31.882v-41.66h9.699v41.66h25.29c3.64,0,6.594-2.953,6.594-6.594v-35.066
		h9.695l11.871,0.078h8.531v35.762c0,3.215,2.606,5.82,5.82,5.82h28.703v-41.66h9.695v41.66h19.473
		c6.438,0,11.946-4.266,13.574-10.164c0.465-1.238,0.621-2.558,0.621-3.878v-27.539h9.078H512V176.018H240.746z M140.516,395.873
		c0.91-1.774,1.449-3.91,1.449-6.133v-54.379h63.457v-9.699h-63.426h-0.031v-64.074h63.457v-9.699h-63.457v-46.777
		c0-7.524-6.129-13.73-13.73-13.73H92.703V88.436h68.031l38.789,89.058c9.078,21.102,29.867,34.676,52.75,34.676H475.77v183.778
		H246.562L140.516,395.873z"></path>
	<path class="st0" d="M132.965,118.459c-10.164,0-18.465,8.301-18.465,18.461c0,10.242,8.301,18.465,18.465,18.465
		c10.238,0,18.461-8.222,18.461-18.465C151.426,126.76,143.203,118.459,132.965,118.459z"></path>
</g>
</svg>
