<!--?xml version="1.0" encoding="utf-8"?-->
<!-- Generator: Adobe Illustrator 18.1.1, SVG Export Plug-In . SVG Version: 6.00 Build 0)  -->

<svg version="1.1" id="_x31_0" xmlns="http://www.w3.org/2000/svg" xmlns:xlink="http://www.w3.org/1999/xlink" x="0px" y="0px" viewBox="0 0 512 512" style="width: 256px; height: 256px; opacity: 1;" xml:space="preserve">
<style type="text/css">
	.st0{fill:#374149;}
</style>
<g>
	<path class="st0" d="M511.88,141.481l0.114-0.114L370.63,0l-87.037,87.037l141.363,141.364L511.88,141.481L511.88,141.481
		L511.88,141.481z M335.08,70.709l18.804-18.804l40.034,40.034l-18.805,18.804L335.08,70.709z M460.115,158.137l-18.804,18.804
		l-40.038-40.038l18.804-18.805L460.115,158.137z"></path>
	<path class="st0" d="M244.683,77.549L10.174,312.054c-13.558,13.558-13.554,35.574,0,49.132L150.83,501.843
		c13.558,13.558,35.55,13.534,49.108-0.024l234.506-234.51L244.683,77.549z M259.48,175.254c-4.18-0.387-8.382-0.562-12.609-0.59
		c-0.336-0.004-0.668-0.047-1.008-0.047c-0.355,0-0.711,0.027-1.07,0.031c-5.367,0.039-10.742,0.355-16.129,0.961
		c-0.105,0.012-0.214,0.02-0.32,0.031c-8.679,1-17.324,2.746-25.886,5.218c-0.171,0.051-0.343,0.106-0.511,0.157
		c-5.207,1.523-10.355,3.316-15.457,5.378c-0.871,0.352-1.738,0.723-2.606,1.09c-2.246,0.953-4.527,1.762-6.746,2.82
		c-1.226,0.539-2.355,1.125-3.41,1.641c-1.519,0.246-2.988-0.246-3.969-1.227c-1.965-1.961-1.793-5.316,0.34-7.453l61.222-61.217
		c5.762-5.762,14.613-6.082,19.784-0.91l54.921,54.921c1.961,1.961,1.914,5.246-0.222,7.378c-1.668,1.668-3.946,2.133-5.785,1.473
		c-12.477-5.098-25.668-8.125-39.117-9.496C260.426,175.366,259.957,175.297,259.48,175.254z"></path>
</g>
</svg>
