<!--?xml version="1.0" encoding="utf-8"?-->
<!-- Generator: Adobe Illustrator 19.1.1, SVG Export Plug-In . SVG Version: 6.00 Build 0)  -->
<svg version="1.1" id="_x31_0" xmlns="http://www.w3.org/2000/svg" xmlns:xlink="http://www.w3.org/1999/xlink" x="0px" y="0px" viewBox="0 0 512 512" style="width: 256px; height: 256px; opacity: 1;" xml:space="preserve">
<style type="text/css">
	.st0{fill:#374149;}
</style>
<g>
	<path class="st0" d="M358.195,1.324l-95.805,95.801l-13.738-13.738c-1.878-1.879-4.773-1.883-6.656,0L87.703,237.68
		c-28.344,28.343-30.656,72.886-6.504,104.117l-34.562,34.562l9.902,9.906L0.234,442.57l-0.121,0.121L0,442.805l24.488,24.488
		l0.055,0.055l0.113,0.113l63.965-63.965l0.024-0.023l19.886,19.882l-63.738,63.738l-0.137,0.137l-0.117,0.114l24.652,24.652
		l56.543-56.539l9.906,9.91l34.492-34.492c30.946,24.148,75.699,21.906,104.187-6.582L428.614,270
		c1.878-1.882,1.882-4.77,0.074-6.578l-13.812-13.808l95.805-95.805c1.804-1.805,1.738-4.77-0.07-6.578L364.774,1.394
		C362.965-0.414,360-0.48,358.195,1.324z M135.566,415.981l-39.547-39.547l14.657-14.656l39.55,39.546L135.566,415.981z
		 M268,293.551l-2.172-2.176l-10.445,10.446l-28.966-8.481l-13.859,13.855c2.898,6,1.867,13.242-3.098,18.207
		c-6.312,6.313-16.656,6.313-22.973-0.004c-6.305-6.305-6.199-16.543,0.114-22.855c5.172-5.172,13.129-6.102,19.238-2.691
		l4.55-4.555l-8.59-29.054l12.722-12.726c-0.515-2.79,0.313-5.898,2.586-8.168c3.515-3.516,9.414-3.626,13.031-0.004
		c3.625,3.621,3.515,9.515,0,13.031c-1.258,1.258-2.813,2.058-4.446,2.438c-0.102,0.023-0.203,0.039-0.301,0.058
		c-1.629,0.316-3.32,0.226-4.867-0.324l-9.106,9.106l3.766,12.691l1.711,6.019l0.058-0.058l0.051,0.172l12.722-12.516l26.309-26.308
		l0.054-0.059l0.114-0.109l-4.637-4.637l-2.11-2.219l9.332-2.558l12.668-3.344l6.133-1.539l-2.457,9.223l-3.402,12.707l-1.734,6.16
		l-6.758-6.762l-20.527,20.527l-9.52,9.418l0.078,0.024l-0.129,0.125l5.996,1.867l12.824,3.722l7.215-7.214l0.015-0.016l0.114-0.114
		l-1.965-1.965l10.55-10.55l10.66,10.656L268,293.551z M387.043,228.137l-103.18-103.18l77.578-77.578l103.179,103.179
		L387.043,228.137z"></path>
	<polygon class="st0" points="349.313,93.828 349.309,93.828 349.195,93.711 330.906,112 352.086,133.184 370.375,114.894 
		349.355,93.871 	"></polygon>
	<polygon class="st0" points="400,181.093 418.289,162.805 397.11,141.625 378.973,159.761 378.93,159.801 378.934,159.801 
		378.82,159.914 	"></polygon>
</g>
</svg>
