<!--?xml version="1.0" encoding="utf-8"?-->
<!-- Generator: Adobe Illustrator 18.1.1, SVG Export Plug-In . SVG Version: 6.00 Build 0)  -->

<svg version="1.1" id="_x31_0" xmlns="http://www.w3.org/2000/svg" xmlns:xlink="http://www.w3.org/1999/xlink" x="0px" y="0px" viewBox="0 0 512 512" style="width: 256px; height: 256px; opacity: 1;" xml:space="preserve">
<style type="text/css">
	.st0{fill:#374149;}
</style>
<g>
	<path class="st0" d="M511.89,257.907l0.11-0.113l-56.25-56.254l-55.898,55.898l-0.242,0.242l0,0l-0.114,0.114l10.106,10.102
		l-38.645,38.644l-67.195-19.738l-32.18-9.531l159.27-159.27l23.906,23.906l11.946,12.062l0.027-0.09l0.129,0.133l26.805-100.039
		l13.324-49.418l-0.09,0.024l0.047-0.176l-99.344,26.618l-50.149,13.355l0.062,0.066l-0.179,0.046l35.973,35.969l0.038,0.043
		L253.961,219.888l-67.821,67.707L156.754,187.56l48.348-48.348c17.058,5.898,36.699,2.211,50.32-11.414
		c19.016-19.015,19.019-49.847,0.008-68.863c-0.746-0.742-1.618-1.266-2.394-1.953c-0.93-0.821-1.883-1.598-2.863-2.34
		c-1.622-1.222-3.278-2.332-5.008-3.324c-1.031-0.598-2.086-1.149-3.16-1.664c-1.801-0.867-3.622-1.618-5.497-2.246
		c-1.046-0.352-2.109-0.66-3.179-0.942c-2.062-0.539-4.125-0.938-6.226-1.203c-0.891-0.113-1.79-0.195-2.692-0.258
		c-2.281-0.16-4.538-0.16-6.82,0c-0.906,0.062-1.805,0.145-2.699,0.258c-2.102,0.266-4.16,0.664-6.219,1.203
		c-1.074,0.282-2.136,0.59-3.187,0.946c-1.875,0.629-3.687,1.378-5.488,2.242c-1.078,0.519-2.137,1.07-3.176,1.671
		c-1.726,0.993-3.375,2.098-4.996,3.321c-0.977,0.738-1.93,1.515-2.859,2.336c-0.782,0.687-1.653,1.21-2.398,1.957
		c-11.734,11.734-16.176,27.957-13.426,43.137l-67.511,67.508l45.102,153.535l-24.051,24.047
		c-32.484-17.867-74.098-13.09-101.629,14.441c-33.398,33.398-33.402,87.543,0,120.942c33.394,33.398,87.547,33.398,120.942,0
		c26.141-26.141,31.718-64.965,16.938-96.629l73.148-73.149l152.852,44.895l55.222-55.219l11.458,11.461l0.023,0.024h0.004
		l0.113,0.113l56.02-56.019L511.89,257.907L511.89,257.907z"></path>
</g>
</svg>
